<mxfile host="app.diagrams.net" modified="2023-10-13T18:45:03.850Z" agent="Mozilla/5.0 (Macintosh; Intel Mac OS X 10_15_7) AppleWebKit/605.1.15 (KHTML, like Gecko) Version/17.0 Safari/605.1.15" etag="4-ikZUgx2LUhGc0PI4iG" version="22.0.4" type="github">
  <diagram id="R2lEEEUBdFMjLlhIrx00" name="Athlete">
    <mxGraphModel dx="1164" dy="774" grid="1" gridSize="10" guides="1" tooltips="1" connect="1" arrows="1" fold="1" page="1" pageScale="1" pageWidth="850" pageHeight="1100" math="0" shadow="0" extFonts="Permanent Marker^https://fonts.googleapis.com/css?family=Permanent+Marker">
      <root>
        <mxCell id="0" />
        <mxCell id="1" parent="0" />
        <mxCell id="C-vyLk0tnHw3VtMMgP7b-12" value="" style="edgeStyle=entityRelationEdgeStyle;endArrow=ERzeroToMany;startArrow=ERone;endFill=1;startFill=0;" parent="1" target="C-vyLk0tnHw3VtMMgP7b-17" edge="1">
          <mxGeometry width="100" height="100" relative="1" as="geometry">
            <mxPoint x="700" y="165" as="sourcePoint" />
            <mxPoint x="460" y="205" as="targetPoint" />
          </mxGeometry>
        </mxCell>
        <mxCell id="lslTd7O0vp6Pm3ccAKAI-1" value="Athlete" style="rounded=0;whiteSpace=wrap;html=1;" vertex="1" parent="1">
          <mxGeometry x="340" y="210" width="120" height="60" as="geometry" />
        </mxCell>
        <mxCell id="lslTd7O0vp6Pm3ccAKAI-9" style="edgeStyle=orthogonalEdgeStyle;rounded=0;orthogonalLoop=1;jettySize=auto;html=1;entryX=0;entryY=0.5;entryDx=0;entryDy=0;" edge="1" parent="1" source="lslTd7O0vp6Pm3ccAKAI-2" target="lslTd7O0vp6Pm3ccAKAI-1">
          <mxGeometry relative="1" as="geometry" />
        </mxCell>
        <mxCell id="lslTd7O0vp6Pm3ccAKAI-2" value="Name" style="ellipse;whiteSpace=wrap;html=1;align=center;" vertex="1" parent="1">
          <mxGeometry x="180" y="220" width="100" height="40" as="geometry" />
        </mxCell>
        <mxCell id="lslTd7O0vp6Pm3ccAKAI-8" style="edgeStyle=orthogonalEdgeStyle;rounded=0;orthogonalLoop=1;jettySize=auto;html=1;entryX=0;entryY=0;entryDx=0;entryDy=0;" edge="1" parent="1" source="lslTd7O0vp6Pm3ccAKAI-3" target="lslTd7O0vp6Pm3ccAKAI-2">
          <mxGeometry relative="1" as="geometry" />
        </mxCell>
        <mxCell id="lslTd7O0vp6Pm3ccAKAI-3" value="f_name" style="ellipse;whiteSpace=wrap;html=1;align=center;dashed=1;" vertex="1" parent="1">
          <mxGeometry x="60" y="150" width="100" height="40" as="geometry" />
        </mxCell>
        <mxCell id="lslTd7O0vp6Pm3ccAKAI-7" style="edgeStyle=orthogonalEdgeStyle;rounded=0;orthogonalLoop=1;jettySize=auto;html=1;exitX=1;exitY=0.5;exitDx=0;exitDy=0;" edge="1" parent="1" source="lslTd7O0vp6Pm3ccAKAI-4" target="lslTd7O0vp6Pm3ccAKAI-2">
          <mxGeometry relative="1" as="geometry" />
        </mxCell>
        <mxCell id="lslTd7O0vp6Pm3ccAKAI-4" value="m_name" style="ellipse;whiteSpace=wrap;html=1;align=center;dashed=1;" vertex="1" parent="1">
          <mxGeometry x="60" y="220" width="100" height="40" as="geometry" />
        </mxCell>
        <mxCell id="lslTd7O0vp6Pm3ccAKAI-6" style="edgeStyle=orthogonalEdgeStyle;rounded=0;orthogonalLoop=1;jettySize=auto;html=1;entryX=0;entryY=1;entryDx=0;entryDy=0;" edge="1" parent="1" source="lslTd7O0vp6Pm3ccAKAI-5" target="lslTd7O0vp6Pm3ccAKAI-2">
          <mxGeometry relative="1" as="geometry" />
        </mxCell>
        <mxCell id="lslTd7O0vp6Pm3ccAKAI-5" value="l_name" style="ellipse;whiteSpace=wrap;html=1;align=center;dashed=1;" vertex="1" parent="1">
          <mxGeometry x="60" y="290" width="100" height="40" as="geometry" />
        </mxCell>
        <mxCell id="lslTd7O0vp6Pm3ccAKAI-11" style="edgeStyle=orthogonalEdgeStyle;rounded=0;orthogonalLoop=1;jettySize=auto;html=1;entryX=0;entryY=0.25;entryDx=0;entryDy=0;" edge="1" parent="1" source="lslTd7O0vp6Pm3ccAKAI-10" target="lslTd7O0vp6Pm3ccAKAI-1">
          <mxGeometry relative="1" as="geometry" />
        </mxCell>
        <mxCell id="lslTd7O0vp6Pm3ccAKAI-10" value="&lt;span style=&quot;border-bottom: 1px dotted&quot;&gt;Player ID&lt;/span&gt;" style="ellipse;whiteSpace=wrap;html=1;align=center;" vertex="1" parent="1">
          <mxGeometry x="270" y="120" width="100" height="40" as="geometry" />
        </mxCell>
        <mxCell id="lslTd7O0vp6Pm3ccAKAI-13" style="edgeStyle=orthogonalEdgeStyle;rounded=0;orthogonalLoop=1;jettySize=auto;html=1;entryX=0;entryY=0.75;entryDx=0;entryDy=0;" edge="1" parent="1" source="lslTd7O0vp6Pm3ccAKAI-12" target="lslTd7O0vp6Pm3ccAKAI-1">
          <mxGeometry relative="1" as="geometry" />
        </mxCell>
        <mxCell id="lslTd7O0vp6Pm3ccAKAI-12" value="DOB" style="ellipse;whiteSpace=wrap;html=1;align=center;" vertex="1" parent="1">
          <mxGeometry x="200" y="330" width="100" height="40" as="geometry" />
        </mxCell>
      </root>
    </mxGraphModel>
  </diagram>
</mxfile>
